<?xml version="1.0" encoding="utf-8"?>
<!-- Generator: Adobe Illustrator 21.0.2, SVG Export Plug-In . SVG Version: 6.00 Build 0)  -->
<svg version="1.1" id="Calque_1" xmlns:serif="http://www.serif.com/"
	 xmlns="http://www.w3.org/2000/svg" xmlns:xlink="http://www.w3.org/1999/xlink" x="0px" y="0px" viewBox="0 0 595 483.5"
	 style="enable-background:new 0 0 595 483.5;" xml:space="preserve">
<path d="M187.1,483.5c224.5,0,347.3-186,347.3-347.3c0-5.3,0-10.5-0.4-15.8c23.9-17.3,44.5-38.7,60.9-63.2
	c-22.3,9.9-45.9,16.3-70.1,19.2c25.5-15.3,44.6-39.3,53.7-67.5c-24,14.2-50.2,24.2-77.5,29.6C478,13.9,445.7,0,412,0
	c-67,0-122.2,55.2-122.2,122.2c0,9.3,1.1,18.6,3.2,27.6c-98.1-4.9-189.6-51.3-251.6-127.5c-32.2,55.5-15.5,127.3,37.8,163
	c-19.4-0.6-38.4-5.8-55.4-15.3v1.5c0,57.9,41.2,108.2,97.9,119.7c-18,4.9-36.8,5.6-55.1,2.1c16,49.6,62,83.8,114,84.8
	c-43.2,34-96.6,52.4-151.6,52.4c-9.7,0-19.4-0.6-29.1-1.8C55.8,464.5,120.8,483.5,187.1,483.5"/>
</svg>
